<svg width="99.99999999999999" height="125.00000000000001" xmlns="http://www.w3.org/2000/svg">

 <g>
  <title>background</title>
  <rect fill="none" id="canvas_background" height="402" width="582" y="-1" x="-1"/>
 </g>
 <g>
  <title>Layer 1</title>
  <path id="svg_1" d="m67.884003,31.799047c-0.094002,-0.949001 -0.845001,-1.699001 -1.792999,-1.793001c-2.916004,-0.291 -5.802002,0.431 -8.213005,1.992001c0.002003,-0.118999 0.017002,-0.237 0.017002,-0.357c0,-5.25 -2.332001,-10.171999 -6.396999,-13.504c-0.736,-0.604 -1.799,-0.604 -2.535,0c-4.066002,3.333 -6.398003,8.255001 -6.398003,13.504c0,0.233 0.024002,0.463003 0.033001,0.694998c-2.501999,-1.786997 -5.572998,-2.639997 -8.687,-2.328997c-0.947998,0.094 -1.698997,0.844999 -1.792999,1.792999c-0.379999,3.835001 0.963001,7.594999 3.683998,10.315001c1.324001,1.324001 2.893002,2.309002 4.599003,2.939999c-2.816002,2.596001 -4.593002,6.302002 -4.593002,10.424c0,4.188999 2.263,17.697002 4.745003,31.458004c-0.001003,0.024994 -0.007,0.047997 -0.007,0.072998c0,0.279999 0.058998,0.546997 0.162998,0.789001c0.569,3.144997 1.146,6.292999 1.709,9.336998c0.309002,1.673996 0.539001,2.917 0.653,3.564003c0.98,5.530998 3.284,6.612999 6.931999,6.612999c3.736,0 6.069,-1.089005 6.938004,-6.653c0.165997,-1.062004 0.679996,-3.874001 1.327999,-7.434006c2.868999,-15.723999 5.928997,-32.904995 5.928997,-37.747997c0,-4.121998 -1.776997,-7.827999 -4.592999,-10.424c1.706001,-0.632 3.274002,-1.615997 4.599003,-2.940002c2.716995,-2.718998 4.059998,-6.478996 3.68,-10.314997zm-17.655003,-9.388c2.347,2.484999 3.665001,5.765001 3.665001,9.229c0,3.435999 -1.297001,6.707998 -3.650002,9.211c-0.005001,0.005001 -0.009998,0.010998 -0.014999,0.015999c-2.363998,-2.506001 -3.666,-5.781002 -3.666,-9.226999c0,-3.463999 1.319,-6.744001 3.666,-9.229zm-14.127998,11.579c2.000999,0.206997 3.855,1.085999 5.295998,2.526997c1.441002,1.442001 2.32,3.308002 2.528,5.296005c-2.001999,-0.208 -3.855,-1.086002 -5.297001,-2.528c-1.440998,-1.440002 -2.319,-3.306 -2.526997,-5.295002zm24.092999,21.488998c0,4.886002 -3.813999,25.796001 -5.862999,37.030003c-0.68,3.727997 -1.172001,6.420998 -1.345001,7.533997c-0.509998,3.270004 -0.986,3.270004 -2.986,3.270004c-1.991001,0 -2.404999,0 -2.992001,-3.311005c-0.116001,-0.653999 -0.348,-1.906998 -0.66,-3.593994c-0.355999,-1.925003 -0.829998,-4.491005 -1.359001,-7.399002l4.899002,0c1.104,0 2,-0.896004 2,-2s-0.896,-2 -2,-2l-5.622002,0c-0.295998,-1.650002 -0.599998,-3.360001 -0.903999,-5.092003l6.526001,0c1.104,0 2,-0.895996 2,-2s-0.896,-2 -2,-2l-7.221001,0c-0.308998,-1.799995 -0.608002,-3.585999 -0.891998,-5.318001l8.112999,0c1.104,0 2,-0.895996 2,-2s-0.896,-2 -2,-2l-8.750999,0c-0.787003,-5.077 -1.330002,-9.250999 -1.330002,-11.120998c0,-5.620998 4.573002,-10.194 10.194,-10.194s10.193001,4.573002 10.193001,10.195zm1.178001,-16.192997c-1.441002,1.440998 -3.295002,2.32 -5.297001,2.527c0.208,-1.988003 1.086998,-3.854004 2.528,-5.296005c1.439999,-1.440998 3.294998,-2.32 5.295998,-2.526997c-0.207996,1.989002 -1.085999,3.855 -2.526997,5.296001z"/>
 </g>
</svg>